<svg xmlns="http://www.w3.org/2000/svg" width="100" height="275" viewBox="0 0 16 44">
  <metadata><?xpacket begin="﻿" id="W5M0MpCehiHzreSzNTczkc9d"?>
<x:xmpmeta xmlns:x="adobe:ns:meta/" x:xmptk="Adobe XMP Core 5.6-c138 79.159824, 2016/09/14-01:09:01        ">
   <rdf:RDF xmlns:rdf="http://www.w3.org/1999/02/22-rdf-syntax-ns#">
      <rdf:Description rdf:about=""/>
   </rdf:RDF>
</x:xmpmeta>
                                                                                                    
                                                                                                    
                                                                                                    
                                                                                                    
                                                                                                    
                                                                                                    
                                                                                                    
                                                                                                    
                                                                                                    
                                                                                                    
                                                                                                    
                                                                                                    
                                                                                                    
                                                                                                    
                                                                                                    
                                                                                                    
                                                                                                    
                                                                                                    
                                                                                                    
                                                                                                    
                           
<?xpacket end="w"?></metadata>
<defs>
    <style>
      .cls-1 {
        fill: #5da8ef;
        fill-rule: evenodd;
      }
    </style>
  </defs>
  <path id="logo" class="cls-1" d="M116,38c-2.321,0-8,7.212-8,20.581a51.2,51.2,0,0,0,5.178,23.046L113.384,82h5.232l0.206-.373A51.22,51.22,0,0,0,124,58.581C124,45.212,118.321,38,116,38Zm1.733,42.581h-1.006V75.613h-1.454V80.58h-1.006a48.979,48.979,0,0,1-4-12.837,16.024,16.024,0,0,0,5.366,4.932,7.178,7.178,0,0,1,3.645,4.286A37.829,37.829,0,0,1,117.733,80.58Zm2.241-5.655a9.634,9.634,0,0,0-3.6-3.471c-5.744-3.337-6.651-8.18-6.778-9.156-0.061-.838-0.1-1.7-0.117-2.579a15.243,15.243,0,0,0,6.161,5.864c4.673,2.606,5.459,5.185,5.473,5.23C120.755,72.333,120.364,73.712,119.974,74.925Zm-3.613-10.586c-6.857-3.823-6.773-9.307-6.767-9.307h0c0.715-9.226,4.024-13.705,5.68-15.147V62.129h1.454V39.885c1.862,1.622,5.818,7.52,5.818,18.7a53.3,53.3,0,0,1-.975,10.1A15.616,15.616,0,0,0,116.361,64.339Z" transform="translate(-108 -38)"/>
</svg>
